<?xml version="1.0" encoding="UTF-8" standalone="no"?>
<!-- Created with Inkscape (http://www.inkscape.org/) -->

<svg
   xmlns:dc="http://purl.org/dc/elements/1.1/"
   xmlns:cc="http://creativecommons.org/ns#"
   xmlns:rdf="http://www.w3.org/1999/02/22-rdf-syntax-ns#"
   xmlns:svg="http://www.w3.org/2000/svg"
   xmlns="http://www.w3.org/2000/svg"
   xmlns:xlink="http://www.w3.org/1999/xlink"
   xmlns:sodipodi="http://sodipodi.sourceforge.net/DTD/sodipodi-0.dtd"
   xmlns:inkscape="http://www.inkscape.org/namespaces/inkscape"
   width="1024"
   height="1024"
   id="svg2"
   version="1.1"
   inkscape:version="0.92.2 5c3e80d, 2017-08-06"
   sodipodi:docname="EMU-webAppIcon.svg">
  <defs
     id="defs4">
    <linearGradient
       id="linearGradient3902">
      <stop
         style="stop-color:#ffffff;stop-opacity:1;"
         offset="0"
         id="stop3904" />
      <stop
         style="stop-color:#fff9f9;stop-opacity:0.72868216;"
         offset="1"
         id="stop3906" />
    </linearGradient>
    <linearGradient
       id="linearGradient4110">
      <stop
         style="stop-color:#0eb0fb;stop-opacity:1;"
         offset="0"
         id="stop4112" />
      <stop
         style="stop-color:#ff00f3;stop-opacity:1;"
         offset="1"
         id="stop4114" />
    </linearGradient>
    <inkscape:perspective
       sodipodi:type="inkscape:persp3d"
       inkscape:vp_x="0 : 512 : 1"
       inkscape:vp_y="0 : 1000 : 0"
       inkscape:vp_z="1024 : 512 : 1"
       inkscape:persp3d-origin="512 : 341.33333 : 1"
       id="perspective4094" />
    <linearGradient
       id="linearGradient4483">
      <stop
         style="stop-color:#056aff;stop-opacity:1;"
         offset="0"
         id="stop4485" />
      <stop
         style="stop-color:#ffffff;stop-opacity:0;"
         offset="1"
         id="stop4487" />
    </linearGradient>
    <linearGradient
       inkscape:collect="always"
       xlink:href="#linearGradient4110"
       id="linearGradient4116"
       x1="511.68015"
       y1="0"
       x2="511.68015"
       y2="1461.4401"
       gradientUnits="userSpaceOnUse"
       gradientTransform="scale(1,1.001095)" />
    <linearGradient
       inkscape:collect="always"
       xlink:href="#linearGradient3902"
       id="linearGradient3908"
       x1="509.1376"
       y1="513.90118"
       x2="467.15973"
       y2="1029.1136"
       gradientUnits="userSpaceOnUse"
       gradientTransform="matrix(1.2524295,0,0,1.2524296,-80.971746,-167.16162)" />
    <filter
       style="color-interpolation-filters:sRGB;"
       inkscape:label="Drop Shadow"
       id="filter4143">
      <feFlood
         flood-opacity="0.5"
         flood-color="rgb(0,0,0)"
         result="flood"
         id="feFlood4145" />
      <feComposite
         in="flood"
         in2="SourceGraphic"
         operator="in"
         result="composite1"
         id="feComposite4147" />
      <feGaussianBlur
         in="composite"
         stdDeviation="2"
         result="blur"
         id="feGaussianBlur4149" />
      <feOffset
         dx="4"
         dy="4"
         result="offset"
         id="feOffset4151" />
      <feComposite
         in="SourceGraphic"
         in2="offset"
         operator="over"
         result="composite2"
         id="feComposite4153" />
    </filter>
  </defs>
  <sodipodi:namedview
     id="base"
     pagecolor="#ffffff"
     bordercolor="#666666"
     borderopacity="1.0"
     inkscape:pageopacity="0.0"
     inkscape:pageshadow="2"
     inkscape:zoom="0.64"
     inkscape:cx="322.5771"
     inkscape:cy="508.89593"
     inkscape:document-units="px"
     inkscape:current-layer="svg2"
     showgrid="false"
     showguides="true"
     inkscape:guide-bbox="true"
     fit-margin-top="0"
     fit-margin-left="0"
     fit-margin-right="0"
     fit-margin-bottom="0"
     inkscape:window-width="1860"
     inkscape:window-height="1029"
     inkscape:window-x="25"
     inkscape:window-y="9"
     inkscape:window-maximized="0"
     inkscape:showpageshadow="false"
     borderlayer="true"
     showborder="false">
    <sodipodi:guide
       orientation="0,1"
       position="-10.429825,956.71547"
       id="guide3101" />
    <sodipodi:guide
       orientation="1,0"
       position="956.5625,59.8125"
       id="guide3103" />
    <sodipodi:guide
       orientation="0,1"
       position="1246.875,315.625"
       id="guide3105" />
    <sodipodi:guide
       orientation="1,0"
       position="67.351921,64.523494"
       id="guide3107" />
    <sodipodi:guide
       orientation="0,1"
       position="961.5,67.5"
       id="guide3109" />
    <sodipodi:guide
       orientation="1,0"
       position="319.08193,67.707547"
       id="guide3111" />
    <sodipodi:guide
       orientation="1,0"
       position="511.68014,67.707547"
       id="guide3113" />
    <sodipodi:guide
       orientation="1,0"
       position="706.1875,64.734375"
       id="guide3115" />
    <sodipodi:guide
       orientation="0,1"
       position="-21.213203,1024"
       id="guide3117" />
    <sodipodi:guide
       orientation="0,1"
       position="0,0"
       id="guide3119" />
    <sodipodi:guide
       orientation="1,0"
       position="0,1042.6289"
       id="guide3121" />
    <sodipodi:guide
       orientation="0,1"
       position="-6.8942911,705"
       id="guide3123" />
    <sodipodi:guide
       orientation="1,0"
       position="1024,1037.75"
       id="guide3125" />
    <sodipodi:guide
       orientation="0,1"
       position="-27.223611,512.65241"
       id="guide3127" />
    <inkscape:grid
       type="xygrid"
       id="grid4235"
       empspacing="5"
       visible="true"
       enabled="true"
       snapvisiblegridlinesonly="true" />
    <sodipodi:guide
       orientation="1,0"
       position="511.68014,430.8932"
       id="guide4003" />
  </sodipodi:namedview>
  <metadata
     id="metadata7">
    <rdf:RDF>
      <cc:Work
         rdf:about="">
        <dc:format>image/svg+xml</dc:format>
        <dc:type
           rdf:resource="http://purl.org/dc/dcmitype/StillImage" />
        <dc:title></dc:title>
      </cc:Work>
    </rdf:RDF>
  </metadata>
  <g
     inkscape:groupmode="layer"
     id="layer5"
     inkscape:label="Background"
     style="display:inline"
     sodipodi:insensitive="true">
    <rect
       style="color:#000000;fill:url(#linearGradient4116);fill-opacity:1;fill-rule:nonzero;stroke:none;stroke-width:2;marker:none;visibility:visible;display:inline;overflow:visible;enable-background:accumulate"
       id="rect4108"
       width="1024"
       height="1024"
       x="0"
       y="1.5099033e-14" />
    <path
       style="fill:#3f8df9;fill-opacity:1"
       d="m 1.17085,429.32282 0,-49.21875 510.9375,0 510.93745,0 0,49.21875 0,49.21875 -510.93745,0 -510.9375,0 0,-49.21875 z"
       id="path3038"
       inkscape:connector-curvature="0" />
    <path
       style="fill:#3f8df9;fill-opacity:1"
       d="m 1.0146,457.44782 0,-244.53125 510.9375,0 510.9375,0 0,244.53125 0,244.53125 -510.9375,0 -510.9375,0 0,-244.53125 z"
       id="path3808"
       inkscape:connector-curvature="0" />
    <path
       style="fill:#3f8df9;fill-opacity:1"
       d="m 1.0146,544.94782 0,-332.03125 510.9375,0 510.9375,0 0,332.03125 0,332.03125 -510.9375,0 -510.9375,0 0,-332.03125 z"
       id="path3810"
       inkscape:connector-curvature="0" />
    <path
       style="fill:#0dc5ff;fill-opacity:1"
       d="m 1.0146,498.85407 0,-435.9375 510.9375,0 510.9375,0 0,435.9375 0,435.9375 -510.9375,0 -510.9375,0 0,-435.9375 z"
       id="path3812"
       inkscape:connector-curvature="0" />
    <path
       style="fill:#0dc5ff;fill-opacity:1"
       d="m 1.0146,487.13532 0,-447.65625 510.9375,0 510.9375,0 0,447.65625 0,447.65625 -510.9375,0 -510.9375,0 0,-447.65625 z"
       id="path3814"
       inkscape:connector-curvature="0" />
    <path
       style="fill:#0dc5ff;fill-opacity:1"
       d="m 1.0146,487.13532 0,-447.65625 510.9375,0 510.9375,0 0,447.65625 0,447.65625 -510.9375,0 -510.9375,0 0,-447.65625 z"
       id="path3816"
       inkscape:connector-curvature="0" />
    <path
       style="fill:#0dc5ff;fill-opacity:1"
       d="m 1.0146,487.13532 0,-447.65625 510.9375,0 510.9375,0 0,447.65625 0,447.65625 -510.9375,0 -510.9375,0 0,-447.65625 z"
       id="path3818"
       inkscape:connector-curvature="0" />
    <path
       style="fill:#0dc5ff;fill-opacity:1"
       d="m 1.0146,26.97907 0,-12.5 510.9375,0 510.9375,0 0,12.5 0,12.5 -510.9375,0 -510.9375,0 0,-12.5 z"
       id="path3820"
       inkscape:connector-curvature="0" />
    <path
       style="fill:#0dc5ff;fill-opacity:1"
       d="m 1.0146,474.63532 0,-460.15625 510.9375,0 510.9375,0 0,460.15625 0,460.15625 -510.9375,0 -510.9375,0 0,-460.15625 z"
       id="path3822"
       inkscape:connector-curvature="0" />
    <path
       style="fill:#0dc5ff;fill-opacity:1"
       d="m 1.0146,7.44782 0,-7.03125 510.9375,0 510.9375,0 0,7.03125 0,7.03125 -510.9375,0 -510.9375,0 0,-7.03125 z"
       id="path3824"
       inkscape:connector-curvature="0" />
    <path
       style="fill:#0dc5ff;fill-opacity:1"
       d="m 1.0146,467.60407 0,-467.1875 510.9375,0 510.9375,0 0,467.1875 0,467.1875 -510.9375,0 -510.9375,0 0,-467.1875 z"
       id="path3826"
       inkscape:connector-curvature="0" />
    <path
       style="fill:#0dc5ff;fill-opacity:1"
       d="m 1.0146,972.29157 0,-20.3125 510.9375,0 510.9375,0 0,20.3125 0,20.3125 -510.9375,0 -510.9375,0 0,-20.3125 z"
       id="path3828"
       inkscape:connector-curvature="0" />
    <path
       style="fill:#0dc5ff;fill-opacity:1"
       d="m 1.0146,943.38532 0,-8.59375 510.9375,0 510.9375,0 0,8.59375 0,8.59375 -510.9375,0 -510.9375,0 0,-8.59375 z"
       id="path3830"
       inkscape:connector-curvature="0" />
    <path
       style="fill:#0dc5ff;fill-opacity:1"
       d="m 1.0146,512.13532 0,-511.71875 510.9375,0 510.9375,0 0,511.71875 0,511.71878 -510.9375,0 -510.9375,0 0,-511.71878 z"
       id="path3832"
       inkscape:connector-curvature="0" />
    <path
       style="fill:#0dc5ff;fill-opacity:1"
       d="m 1.0146,512.13532 0,-511.71875 510.9375,0 510.9375,0 0,511.71875 0,511.71878 -510.9375,0 -510.9375,0 0,-511.71878 z"
       id="path3834"
       inkscape:connector-curvature="0" />
    <path
       style="fill:#0dc5ff;fill-opacity:1"
       d="m 1.0146,512.13532 0,-511.71875 510.9375,0 510.9375,0 0,511.71875 0,511.71878 -510.9375,0 -510.9375,0 0,-511.71878 z"
       id="path3836"
       inkscape:connector-curvature="0" />
    <path
       style="fill:#0dc5ff;fill-opacity:1"
       d="m 1.0146,512.13532 0,-511.71875 510.9375,0 510.9375,0 0,511.71875 0,511.71878 -510.9375,0 -510.9375,0 0,-511.71878 z"
       id="path3838"
       inkscape:connector-curvature="0" />
    <path
       style="fill:#0dc5ff;fill-opacity:1"
       d="m 1.0146,512.13532 0,-511.71875 510.9375,0 510.9375,0 0,511.71875 0,511.71878 -510.9375,0 -510.9375,0 0,-511.71878 z"
       id="path3840"
       inkscape:connector-curvature="0" />
    <path
       style="fill:#0dc5ff;fill-opacity:1"
       d="m 1.0146,512.13532 0,-511.71875 510.9375,0 510.9375,0 0,511.71875 0,511.71878 -510.9375,0 -510.9375,0 0,-511.71878 z"
       id="path3842"
       inkscape:connector-curvature="0" />
    <path
       style="fill:#0dc5ff;fill-opacity:1"
       d="m 1.0146,512.13532 0,-511.71875 510.9375,0 510.9375,0 0,511.71875 0,511.71878 -510.9375,0 -510.9375,0 0,-511.71878 z"
       id="path3844"
       inkscape:connector-curvature="0" />
    <path
       style="fill:#0dc5ff;fill-opacity:1"
       d="m 1.0146,512.13532 0,-511.71875 510.9375,0 510.9375,0 0,511.71875 0,511.71878 -510.9375,0 -510.9375,0 0,-511.71878 z"
       id="path3986"
       inkscape:connector-curvature="0" />
  </g>
  <g
     inkscape:groupmode="layer"
     id="layer3"
     inkscape:label="emu"
     style="display:inline">
    <path
       style="fill:#ffffff;fill-opacity:1;filter:url(#filter4143)"
       d="m 150.37797,931.73156 c 0.008,-1.67416 4.52844,-7.96341 14.76814,-20.54535 10.88626,-13.37643 17.7431,-23.44227 16.8902,-24.79485 -0.26405,-0.41874 -2.99547,0.10407 -6.06983,1.16182 -6.31029,2.17108 -14.22601,2.78333 -15.82036,1.22362 -1.68406,-1.64748 0.22786,-5.19461 5.50358,-10.21066 6.72398,-6.39304 10.84492,-8.925 19.78332,-12.15514 15.41811,-5.57178 18.24664,-7.6031 29.19591,-20.96713 18.07993,-22.06735 29.91736,-39.83893 58.66769,-88.07799 11.01275,-18.47788 19.08827,-33.32578 23.40586,-43.03449 17.42544,-39.1836 19.51097,-43.22308 25.04636,-48.5119 4.74869,-4.53714 5.23235,-5.38533 5.23235,-9.17593 0,-7.1383 -5.7648,-10.10035 -19.79099,-10.16906 -10.31686,-0.0505 -16.26052,-2.49394 -21.36172,-8.78172 -1.78363,-2.19852 -5.31421,-5.97285 -7.84563,-8.3874 -3.67645,-3.50671 -5.58284,-6.65005 -9.47384,-15.62131 -6.59612,-15.20823 -7.87735,-19.86837 -7.87735,-28.65154 0,-14.22471 6.33375,-66.99326 9.27381,-77.26358 1.86393,-6.51089 9.93594,-24.81695 12.94675,-29.36103 20.37194,-30.74696 24.50883,-34.80141 69.49791,-68.11423 29.66351,-21.96483 42.63855,-29.03066 75.0383,-40.8637 37.54603,-13.71257 52.72612,-14.51419 106.70243,-5.63469 35.97247,5.91772 42.73184,6.54283 65.43099,6.05118 17.10705,-0.37053 20.52191,-0.70643 26.03224,-2.56056 7.88066,-2.65174 22.098,-10.7608 33.70175,-19.22231 10.04912,-7.32784 30.44839,-25.29944 33.95155,-29.91106 1.28913,-1.69706 5.45197,-9.32559 9.25068,-16.95226 5.76528,-11.57482 8.54914,-15.84239 16.84332,-25.82069 5.46515,-6.57472 11.34557,-14.10575 13.06763,-16.73564 13.09964,-20.00473 16.82234,-28.51195 19.45885,-44.46896 6.2114,-37.59186 6.21677,-37.6901 3.48541,-63.11725 -1.29499,-12.05501 -0.77522,-33.58864 1.01573,-42.07817 2.68716,-12.737704 14.13509,-29.360177 24.20334,-35.14319 12.77199,-7.336032 29.56857,0.696307 58.36105,27.90906 5.80597,5.48739 10.32789,10.20095 10.04863,10.47457 -0.27915,0.27364 -5.97945,-1.36022 -12.66739,-3.63079 -14.48196,-4.91664 -21.15575,-6.0105 -23.9158,-3.91982 -1.86851,1.41539 -1.85846,1.4804 0.5351,3.46261 1.34162,1.11108 5.42232,3.4926 9.06812,5.29225 8.11797,4.00712 19.23093,10.92747 21.08931,13.13287 1.00353,1.19101 1.08275,1.91483 0.29398,2.68791 -0.78878,0.77306 -2.02171,0.2471 -4.57851,-1.95318 -3.36587,-2.89649 -3.83081,-3.01114 -12.21261,-3.01114 -18.37316,0 -28.30705,6.83512 -34.52009,23.752 -4.07904,11.1063 -5.39813,22.18775 -6.963,58.49169 -1.52458,35.36918 -3.68874,65.25141 -5.43695,75.07127 -3.73236,20.96549 -19.74065,60.49557 -34.33452,84.7841 -2.95285,4.9145 -8.32482,12.96781 -11.93755,17.89626 -8.32043,11.35046 -11.5575,18.18138 -25.7724,54.38527 -27.3241,69.59179 -42.89517,100.07279 -65.00703,127.25384 -8.81033,10.83022 -14.19606,14.22502 -35.77264,22.54881 -10.3518,3.99353 -22.54675,9.31019 -27.09978,11.81477 -20.09181,11.05236 -40.80467,38.46961 -50.98581,67.48897 -2.88133,8.21253 -3.10936,9.84251 -3.47633,24.85253 -0.45703,18.69674 0.0693,20.78041 6.04385,23.91328 3.58308,1.87891 5.40135,2.09414 17.17956,2.03348 10.45327,-0.0538 16.69696,-0.7055 30.24758,-3.15699 9.39139,-1.69904 27.61311,-4.36833 40.49273,-5.93177 30.91469,-3.75269 33.1491,-4.20871 46.83497,-9.55863 15.43738,-6.03461 16.04672,-6.15074 22.15088,-4.22079 8.81785,2.78796 13.06579,5.78119 17.9898,12.67618 2.52734,3.539 6.6409,8.80145 9.14131,11.69433 7.29971,8.44573 13.42622,16.97221 20.05912,27.91735 6.55134,10.81064 13.44729,23.72403 12.66885,23.72403 -0.25486,0 -3.00367,-0.9315 -6.10825,-2.06999 -3.73928,-1.37121 -7.26274,-3.6474 -10.43766,-6.74287 -4.15143,-4.04752 -5.24873,-4.63438 -8.19904,-4.38518 -5.17507,0.43711 -7.50287,4.11189 -7.50287,11.84426 0,4.73398 -0.30033,6.0436 -1.29947,5.6678 -0.71472,-0.2688 -1.45365,-0.48874 -1.64205,-0.48874 -0.18842,0 -2.5369,-3.55034 -5.21879,-7.88965 -5.99194,-9.69484 -9.82275,-13.34221 -21.18277,-20.16841 -6.39111,-3.84037 -9.92228,-6.72485 -12.69891,-10.37317 -4.57988,-6.0176 -5.0331,-6.1398 -26.25899,-7.08093 -25.44954,-1.12841 -48.21338,1.99497 -74.55757,10.22984 -26.3269,8.2295 -51.63057,12.11176 -62.1897,9.54159 -12.052,-2.93357 -15.74348,-9.4672 -14.61895,-25.87461 0.34346,-5.01111 2.59027,-21.141 4.9929,-35.84423 8.6917,-53.19068 8.17475,-62.69713 -3.71586,-68.33883 -10.27608,-4.8756 -22.92338,-1.24439 -52.58172,15.09689 -10.65846,5.8727 -15.66248,8.05343 -21.00909,9.15574 -4.63003,0.95461 -10.76375,3.38015 -18.0259,7.1283 -6.05429,3.12472 -14.95948,6.8715 -19.78933,8.32615 -8.76945,2.64117 -8.79688,2.6594 -19.87832,13.22554 -22.69622,21.64076 -44.39818,50.32649 -81.91318,108.27317 -8.17953,12.6343 -16.33272,27.4967 -31.39591,57.23171 -11.19092,22.09103 -21.90461,42.56901 -23.80806,45.50659 -2.96236,4.57169 -4.48793,5.83856 -10.59046,8.79461 -5.2314,2.53408 -10.14301,6.20429 -18.44808,13.78537 -13.01242,11.87806 -18.01518,15.06705 -32.68339,20.83382 -11.1206,4.37205 -16.92349,5.96228 -16.91739,4.63608 z"
       id="path4020"
       inkscape:connector-curvature="0" />
    <path
       style="fill:#28170b;stroke-width:1.5625"
       d="m 151.95495,930.28749 c 0.002,-0.70245 6.04291,-8.99595 13.42521,-18.43001 7.38229,-9.43407 14.43031,-19.10204 15.66227,-21.48438 2.66662,-5.15669 1.99372,-5.3202 -10.25699,-2.49239 -6.07075,1.4013 -8.40157,1.40513 -9.79057,0.0161 -1.38901,-1.389 -0.15323,-3.42292 5.19085,-8.54346 6.97129,-6.67966 8.62555,-7.63752 27.81946,-16.10818 8.73766,-3.85611 11.57198,-6.29457 22.11928,-19.02995 29.6004,-35.74112 72.39397,-108.13555 96.38306,-163.05242 1.73524,-3.97239 5.69514,-10.03417 8.79978,-13.47064 11.12763,-12.31694 6.42314,-20.41344 -12.71497,-21.88267 -13.31752,-1.02239 -16.64744,-2.7515 -27.15443,-14.1003 -10.33575,-11.16381 -18.56396,-29.2633 -19.69549,-43.32386 -0.77873,-9.67656 2.59111,-44.18036 6.69843,-68.58527 4.18956,-24.89354 18.68235,-51.47975 39.76126,-72.93978 11.56091,-11.76995 56.09505,-45.49186 74.44962,-56.37437 23.74847,-14.08058 63.26875,-28.37027 85.42494,-30.88781 15.68297,-1.78204 33.89642,-0.30255 69.81294,5.67089 21.65864,3.60215 30.5285,4.29409 55.46875,4.32707 29.25516,0.0387 29.81472,-0.0233 38.42311,-4.25339 12.75366,-6.26712 27.1448,-15.86411 40.63028,-27.095 16.56881,-13.79873 21.7095,-19.92426 30.14358,-35.91839 4.04415,-7.66917 12.61572,-20.62364 19.04794,-28.7877 14.22001,-18.0487 24.55014,-35.38989 27.88339,-46.80791 1.36904,-4.68965 3.93373,-18.40059 5.69931,-30.46874 2.76344,-18.88872 2.97922,-24.07058 1.55064,-37.23775 -3.31934,-30.5944 -1.69989,-48.64879 5.67498,-63.267767 4.78693,-9.488935 16.94477,-21.585236 23.29764,-23.179707 6.13486,-1.539749 16.83177,1.711086 26.29149,7.990089 7.50859,4.983918 32.35412,26.553635 33.36837,28.968855 0.24655,0.58706 -5.28234,-0.59243 -12.28639,-2.62109 -23.56886,-6.82651 -31.04401,-2.90048 -12.38059,6.50241 9.16092,4.61541 22.26831,13.37413 21.36545,14.27699 -0.46798,0.46798 -2.45903,-0.27554 -4.42458,-1.65226 -6.58367,-4.61138 -25.42298,-2.43444 -34.44889,3.98068 -5.24223,3.72589 -13.2205,19.71509 -15.24001,30.54239 -0.83299,4.46597 -2.61517,28.37222 -3.96041,53.125 -3.80309,69.97806 -5.46619,79.02598 -21.31501,115.96223 -9.03025,21.04536 -15.60083,33.16075 -27.05333,49.88325 -11.08094,16.17999 -12.8548,19.86691 -30.49845,63.39035 -25.88261,63.84731 -38.54285,89.35018 -56.13193,113.07256 -13.25679,17.87945 -19.07975,22.15517 -44.33882,32.55754 -34.8609,14.35665 -46.16427,23.57747 -63.18361,51.54254 -11.13238,18.292 -14.66032,28.32459 -16.44239,46.75825 -1.90877,19.74409 -0.20704,27.60859 6.58254,30.42093 7.32688,3.03489 33.63877,1.08293 80.49569,-5.97161 31.80458,-4.78834 45.37114,-7.52559 55.12311,-11.12189 15.26048,-5.6277 17.59989,-5.77318 26.16436,-1.6272 9.72623,4.70839 33.14998,34.77102 49.12295,63.04561 5.09466,9.01833 5.1166,9.14034 1.44392,8.02831 -2.05114,-0.62106 -6.83301,-3.51147 -10.62639,-6.42312 -7.16564,-5.50011 -12.66904,-6.69302 -15.41251,-3.34082 -0.87916,1.07422 -2.2103,5.07841 -2.95808,8.89821 l -1.35961,6.94508 -4.98163,-7.76319 c -6.02154,-9.38378 -10.6722,-13.81913 -23.43184,-22.347 -5.35051,-3.57602 -10.43333,-7.81938 -11.29514,-9.42969 -2.64145,-4.93561 -10.45975,-6.38153 -34.50595,-6.38153 -25.79103,0 -39.13316,2.00819 -68.22088,10.26825 -39.86422,11.32028 -60.79395,12.45925 -69.47259,3.78061 -4.03974,-4.03975 -4.43347,-5.42189 -4.43347,-15.56319 0,-6.12133 2.16492,-24.98401 4.81094,-41.91706 5.31314,-34.00117 6.43693,-55.25111 3.22587,-60.99777 -2.46747,-4.41586 -10.65714,-8.07084 -18.08426,-8.07084 -7.34468,0 -20.06113,4.89483 -40.7338,15.67931 -9.45313,4.93149 -19.29688,9.45499 -21.875,10.05224 -2.57813,0.59723 -12.42188,4.50084 -21.875,8.67465 -9.45313,4.17383 -19.16952,8.07203 -21.59198,8.66269 -5.18527,1.26428 -27.46779,22.82077 -41.08216,39.74361 -30.72339,38.18956 -59.36347,83.19823 -88.31716,138.79286 -23.63522,45.38251 -25.85244,48.60873 -39.07723,56.86023 -3.74356,2.33577 -12.12973,8.72163 -18.63595,14.1908 -7.79645,6.55375 -15.787,11.5718 -23.4375,14.71866 -14.63014,6.01779 -18.64,7.2272 -18.63642,5.62087 z"
       id="path3957"
       inkscape:connector-curvature="0" />
  </g>
  <g
     inkscape:label="BORDER"
     inkscape:groupmode="layer"
     id="layer1"
     transform="translate(50.25,211.52169)"
     style="display:inline"
     sodipodi:insensitive="true">
    <path
       inkscape:connector-curvature="0"
       d="m 301.95446,-211.52169 h 319.59108 c 101.4156,0 152.12339,0 206.7084,17.25959 59.59748,21.69173 106.54481,68.63899 128.23654,128.236542 C 973.75,-11.44076 973.75,39.267072 973.75,140.68273 v 319.59116 c 0,101.41566 0,152.12349 -17.25952,206.70829 -21.69173,59.59758 -68.63906,106.54477 -128.23654,128.23654 -54.58501,17.25959 -105.2928,17.25959 -206.7084,17.25959 H 301.95446 c -101.4156,0 -152.12339,0 -206.708396,-17.25959 C 35.648581,773.52695 -11.298747,726.57976 -32.99048,666.98218 -50.25,612.39738 -50.25,561.68955 -50.25,460.27389 V 140.68273 c 0,-101.415658 0,-152.12349 17.25952,-206.708254 21.691733,-59.597546 68.639061,-106.544846 128.236544,-128.236576 54.585006,-17.25959 105.292796,-17.25959 206.708396,-17.25959 v 0"
       id="path5"
       style="fill:none;stroke:#000000;stroke-opacity:1" />
  </g>
  <g
     inkscape:groupmode="layer"
     id="layer6"
     inkscape:label="MASK"
     style="display:inline">
    <path
       style="color:#000000;display:inline;overflow:visible;visibility:visible;fill:#ffffff;fill-opacity:1;fill-rule:nonzero;stroke:none;stroke-width:2;marker:none;enable-background:accumulate"
       d="m -0.03515625,708.40625 c 0.05564213,38.75762 0.61632351,71.02215 3.48917125,100.18549 0.8757813,8.89038 2.0231286,17.50673 3.364698,25.91301 2.7291509,17.10087 6.251639,30.63186 10.624705,44.6288 0.983104,3.14664 2.343873,6.00913 3.546782,8.89844 4.954414,11.90016 10.441772,22.62502 16.75229,32.23106 7.482354,11.38984 16.590926,23.44234 26.690428,33.79613 11.282296,11.56636 22.163363,20.60638 34.238258,28.7856 7.753914,5.2523 15.167714,9.80978 23.655414,13.91931 3.34329,1.61873 6.78353,3.25751 10.45545,4.87471 6.01057,2.6472 12.64725,5.2405 20.38236,7.4312 16.33865,4.6274 37.83594,9.5058 66.67436,11.7859 26.04947,2.0596 58.07248,3.2184 99.20801,3.1754 H -0.03515625 Z"
       id="path4146"
       inkscape:connector-curvature="0"
       sodipodi:nodetypes="csssssssssssccc" />
    <path
       style="color:#000000;display:inline;overflow:visible;visibility:visible;fill:#ffffff;fill-opacity:1;fill-rule:nonzero;stroke:none;stroke-width:2;marker:none;enable-background:accumulate"
       d="m 1024,708.375 c -0.028,33.52476 -0.3641,57.51886 -2.1872,86.13032 -2.1429,33.63123 -7.6767,62.03085 -16.1313,85.82727 -5.1582,14.5187 -11.40374,27.32387 -18.62968,38.55822 -10.39312,16.15845 -22.65083,31.16786 -36.89519,44.46448 -6.86448,6.40775 -13.96935,11.81612 -21.91877,17.50161 -10.37402,7.41958 -20.2254,13.06198 -32.1818,18.6383 -10.69022,4.9858 -23.165,9.4996 -39.90567,13.451 -11.58454,2.7344 -25.21186,5.3376 -41.70422,7.0737 -27.23282,2.8667 -62.17789,3.4121 -108.25867,3.9801 H 1024 Z"
       id="path4146-5"
       inkscape:connector-curvature="0"
       sodipodi:nodetypes="cssssssssccc" />
    <path
       style="color:#000000;display:inline;overflow:visible;visibility:visible;fill:#ffffff;fill-opacity:1;fill-rule:nonzero;stroke:none;stroke-width:2;marker:none;enable-background:accumulate"
       d="m 1023.9571,318.26274 c 0.1837,-39.14081 -0.2997,-73.55855 -3.476,-103.94061 -1.4113,-13.49969 -3.8539,-26.31006 -5.9548,-38.18792 -3.6187,-20.45841 -10.1174,-38.44655 -17.2973,-52.70888 -2.12747,-4.22606 -3.90726,-7.55456 -5.77779,-10.81658 -1.49793,-2.61224 -3.05404,-5.18185 -4.89348,-8.13563 -1.96035,-3.14791 -3.87346,-6.195884 -5.993,-9.197124 C 974.88453,87.232938 968.40279,79.35023 961.65509,72.082687 951.58996,61.242143 940.4011,51.100793 927.77306,42.698049 909.73264,30.693887 894.47219,21.390417 866.08729,13.614807 853.18652,10.080839 837.40303,6.7460486 817.42751,4.3881848 790.09127,1.1614792 754.65731,0.08073128 706.1875,0 H 1024 Z"
       id="path4146-5-3"
       inkscape:connector-curvature="0"
       sodipodi:nodetypes="cssssssssssccc" />
    <path
       style="color:#000000;display:inline;overflow:visible;visibility:visible;fill:#ffffff;fill-opacity:1;fill-rule:nonzero;stroke:none;stroke-width:2;marker:none;enable-background:accumulate"
       d="M 0,318.48 C 0.04438432,264.21497 1.9515494,215.42652 8.7981727,178.4577 14.754939,146.29372 24.640519,123.97857 37.889606,103.37989 53.29125,79.434582 73.01483,58.195063 97.250401,42.030991 111.80438,32.324119 124.48551,25.310001 143.39137,18.055461 153.25339,14.271217 164.74156,11.469151 178.08885,8.8727346 208.3231,2.9913388 250.69975,-0.29260813 319.08193,0 H 0 Z"
       id="path4146-5-3-7"
       inkscape:connector-curvature="0"
       sodipodi:nodetypes="csssssccc" />
  </g>
  <g
     inkscape:groupmode="layer"
     id="layer2"
     inkscape:label="GUIDES"
     style="display:inline"
     transform="translate(0,-2.2054443)">
    <path
       style="color:#000000;display:inline;overflow:visible;visibility:visible;fill:none;stroke:#000000;stroke-width:2;stroke-linecap:butt;stroke-linejoin:miter;stroke-miterlimit:4;stroke-dasharray:none;stroke-dashoffset:0;stroke-opacity:1;marker:none;enable-background:accumulate"
       d="M 0.99801512,321.03518 V 707.31187"
       id="path4024"
       inkscape:connector-curvature="0" />
    <circle
       style="color:#000000;display:inline;overflow:visible;visibility:visible;fill:none;stroke:#000000;stroke-width:1.00571477;stroke-linecap:butt;stroke-linejoin:miter;stroke-miterlimit:4;stroke-dasharray:none;stroke-dashoffset:0;stroke-opacity:1;marker:none;enable-background:accumulate"
       id="path3129"
       transform="matrix(1.988799,0,0,1.988471,-407.91018,-80.585593)"
       cx="462.32144"
       cy="298.86218"
       r="138" />
    <circle
       style="color:#000000;display:inline;overflow:visible;visibility:visible;fill:none;stroke:#000000;stroke-width:0.62086099;stroke-linecap:butt;stroke-linejoin:miter;stroke-miterlimit:4;stroke-dasharray:none;stroke-dashoffset:0;stroke-opacity:1;marker:none;enable-background:accumulate"
       id="path3129-9"
       transform="matrix(3.2215081,0,0,3.2211587,-977.38931,-448.55899)"
       cx="462.32144"
       cy="298.86218"
       r="138" />
    <path
       style="color:#000000;display:inline;overflow:visible;visibility:visible;fill:none;stroke:#000000;stroke-width:2;stroke-linecap:butt;stroke-linejoin:miter;stroke-miterlimit:4;stroke-dasharray:none;stroke-dashoffset:0;stroke-opacity:1;marker:none;enable-background:accumulate"
       d="M 67.351921,69.489974 956.5625,958.70544"
       id="path4011"
       inkscape:connector-curvature="0"
       sodipodi:nodetypes="cc" />
    <path
       style="color:#000000;display:inline;overflow:visible;visibility:visible;fill:none;stroke:#000000;stroke-width:2;stroke-linecap:butt;stroke-linejoin:miter;stroke-miterlimit:4;stroke-dasharray:none;stroke-dashoffset:0;stroke-opacity:1;marker:none;enable-background:accumulate"
       d="M 0.99801467,707.31189 H 1023.001"
       id="path4028"
       inkscape:connector-curvature="0" />
    <path
       style="color:#000000;display:inline;overflow:visible;visibility:visible;fill:none;stroke:#000000;stroke-width:2;stroke-linecap:butt;stroke-linejoin:miter;stroke-miterlimit:4;stroke-dasharray:none;stroke-dashoffset:0;stroke-opacity:1;marker:none;enable-background:accumulate"
       d="M 0.99801467,513.69318 H 1023.001"
       id="path4030"
       inkscape:connector-curvature="0" />
    <path
       style="color:#000000;display:inline;overflow:visible;visibility:visible;fill:none;stroke:#000000;stroke-width:2;stroke-linecap:butt;stroke-linejoin:miter;stroke-miterlimit:4;stroke-dasharray:none;stroke-dashoffset:0;stroke-opacity:1;marker:none;enable-background:accumulate"
       d="M 0.99801467,321.0352 H 1023.001"
       id="path4032"
       inkscape:connector-curvature="0" />
    <path
       style="color:#000000;display:inline;overflow:visible;visibility:visible;fill:none;stroke:#000000;stroke-width:2;stroke-linecap:butt;stroke-linejoin:miter;stroke-miterlimit:4;stroke-dasharray:none;stroke-dashoffset:0;stroke-opacity:1;marker:none;enable-background:accumulate"
       d="M 319.08193,1026.2054 V 2.2054443"
       id="path4034"
       inkscape:connector-curvature="0"
       sodipodi:nodetypes="cc" />
    <path
       style="color:#000000;display:inline;overflow:visible;visibility:visible;fill:none;stroke:#000000;stroke-width:2;stroke-linecap:butt;stroke-linejoin:miter;stroke-miterlimit:4;stroke-dasharray:none;stroke-dashoffset:0;stroke-opacity:1;marker:none;enable-background:accumulate"
       d="M 511.68014,2.2054443 V 1026.2054"
       id="path4036"
       inkscape:connector-curvature="0"
       sodipodi:nodetypes="cc" />
    <path
       style="color:#000000;display:inline;overflow:visible;visibility:visible;fill:none;stroke:#000000;stroke-width:2;stroke-linecap:butt;stroke-linejoin:miter;stroke-miterlimit:4;stroke-dasharray:none;stroke-dashoffset:0;stroke-opacity:1;marker:none;enable-background:accumulate"
       d="M 706.1875,1026.2054 V 2.2054443"
       id="path4038"
       inkscape:connector-curvature="0"
       sodipodi:nodetypes="cc" />
    <path
       style="color:#000000;display:inline;overflow:visible;visibility:visible;fill:none;stroke:#000000;stroke-width:2;stroke-linecap:butt;stroke-linejoin:miter;stroke-miterlimit:4;stroke-dasharray:none;stroke-dashoffset:0;stroke-opacity:1;marker:none;enable-background:accumulate"
       d="M 67.351921,958.70544 956.5625,69.489974"
       id="path4001"
       inkscape:connector-curvature="0"
       sodipodi:nodetypes="cc" />
    <path
       style="color:#000000;display:inline;overflow:visible;visibility:visible;fill:none;stroke:#000000;stroke-width:2;stroke-linecap:butt;stroke-linejoin:miter;stroke-miterlimit:4;stroke-dasharray:none;stroke-dashoffset:0;stroke-opacity:1;marker:none;enable-background:accumulate"
       d="M 956.5625,69.489974 V 958.70544"
       id="path4003"
       inkscape:connector-curvature="0"
       sodipodi:nodetypes="cc" />
    <path
       style="color:#000000;display:inline;overflow:visible;visibility:visible;fill:none;stroke:#000000;stroke-width:2;stroke-linecap:butt;stroke-linejoin:miter;stroke-miterlimit:4;stroke-dasharray:none;stroke-dashoffset:0;stroke-opacity:1;marker:none;enable-background:accumulate"
       d="M 67.351921,69.489974 H 956.5625"
       id="path4009"
       inkscape:connector-curvature="0"
       sodipodi:nodetypes="cc" />
    <path
       style="color:#000000;display:inline;overflow:visible;visibility:visible;fill:none;stroke:#000000;stroke-width:2;stroke-linecap:butt;stroke-linejoin:miter;stroke-miterlimit:4;stroke-dasharray:none;stroke-dashoffset:0;stroke-opacity:1;marker:none;enable-background:accumulate"
       d="M 67.351921,958.70544 V 69.489974"
       id="path4007"
       inkscape:connector-curvature="0"
       sodipodi:nodetypes="cc" />
    <path
       style="color:#000000;display:inline;overflow:visible;visibility:visible;fill:none;stroke:#000000;stroke-width:2;stroke-linecap:butt;stroke-linejoin:miter;stroke-miterlimit:4;stroke-dasharray:none;stroke-dashoffset:0;stroke-opacity:1;marker:none;enable-background:accumulate"
       d="m 956.5625,958.70544 -889.210579,-3e-5"
       id="path4005"
       inkscape:connector-curvature="0"
       sodipodi:nodetypes="cc" />
    <circle
       style="color:#000000;display:inline;overflow:visible;visibility:visible;fill:none;stroke:#000000;stroke-width:1.42908275;stroke-linecap:butt;stroke-linejoin:miter;stroke-miterlimit:4;stroke-dasharray:none;stroke-dashoffset:0;stroke-opacity:1;marker:none;enable-background:accumulate"
       id="path3129-7"
       transform="matrix(1.4025564,0,0,1.3964479,-135.79717,96.569794)"
       cx="462.32144"
       cy="298.86218"
       r="138" />
  </g>
</svg>
